<svg width="20" height="20" viewBox="0 0 20 20" fill="none" xmlns="http://www.w3.org/2000/svg">
<path d="M10 17.2321C10.3236 17.2321 10.5859 16.9698 10.5859 16.6462V8.77863C10.5859 8.45503 10.3236 8.19269 10 8.19269C9.67641 8.19269 9.41406 8.45503 9.41406 8.77863V16.6462C9.41406 16.9698 9.67641 17.2321 10 17.2321Z" fill="#BD0707"/>
<path d="M6.77397 16.7012C6.80444 17.024 7.09096 17.26 7.41241 17.2295C7.7346 17.1991 7.97108 16.9132 7.94065 16.591L7.19776 8.72351C7.16733 8.40136 6.88202 8.1648 6.55932 8.19527C6.23713 8.2257 6.00065 8.51152 6.03108 8.83371L6.77397 16.7012Z" fill="#BD0707"/>
<path d="M12.5878 17.2295C12.9096 17.26 13.1957 17.0237 13.2262 16.7013L13.9691 8.83375C13.9995 8.51156 13.763 8.22574 13.4408 8.19531C13.1182 8.16468 12.8328 8.4014 12.8024 8.72355L12.0595 16.5911C12.0291 16.9132 12.2656 17.1991 12.5878 17.2295V17.2295Z" fill="#BD0707"/>
<path d="M2.25183 6.59668H2.6021L4.29929 19.4905C4.33765 19.7821 4.58617 20 4.88023 20H15.1199C15.4139 20 15.6624 19.7821 15.7008 19.4905L17.398 6.59668H17.7483C18.0719 6.59668 18.3342 6.33434 18.3342 6.01074V3.44711C18.3342 3.12352 18.0719 2.86117 17.7483 2.86117H12.7343V2.63027C12.7343 1.17996 11.5544 0 10.1041 0H9.89605C8.44574 0 7.26578 1.17996 7.26578 2.63027V2.86117H2.25183C1.92824 2.86117 1.66589 3.12352 1.66589 3.44711V6.01074C1.66589 6.33434 1.9282 6.59668 2.25183 6.59668V6.59668ZM14.606 18.8281H5.39406L3.7841 6.59668H16.216L14.606 18.8281ZM8.43761 2.63027C8.43761 1.82613 9.09187 1.17188 9.89601 1.17188H10.104C10.9082 1.17188 11.5624 1.82613 11.5624 2.63027V2.86117H8.43761V2.63027ZM2.83777 4.03305H17.1623V5.4248C17.0371 5.4248 2.99402 5.4248 2.83777 5.4248V4.03305Z" fill="#BD0707"/>
</svg>
