<svg width="40" height="40" viewBox="0 0 40 40" fill="none" xmlns="http://www.w3.org/2000/svg">
<g clip-path="url(#clip0_2_1320)">
<path d="M19.715 19.2682C22.3621 19.2682 24.6539 18.3188 26.5271 16.4456C28.3997 14.5728 29.3494 12.2812 29.3494 9.63379C29.3494 6.9873 28.4 4.69543 26.5268 2.82196C24.6536 0.949402 22.3618 0 19.715 0C17.0676 0 14.776 0.949402 12.9031 2.82227C11.0303 4.69513 10.0806 6.987 10.0806 9.63379C10.0806 12.2812 11.0303 14.5731 12.9031 16.4459C14.7766 18.3185 17.0685 19.2682 19.715 19.2682ZM14.5609 4.47968C15.9979 3.0426 17.6837 2.34406 19.715 2.34406C21.7459 2.34406 23.432 3.0426 24.8694 4.47968C26.3065 5.91705 27.0053 7.60315 27.0053 9.63379C27.0053 11.665 26.3065 13.3508 24.8694 14.7882C23.432 16.2256 21.7459 16.9241 19.715 16.9241C17.6843 16.9241 15.9985 16.2253 14.5609 14.7882C13.1235 13.3511 12.4246 11.665 12.4246 9.63379C12.4246 7.60315 13.1235 5.91705 14.5609 4.47968Z" fill="#BD0707"/>
<path d="M36.5726 30.7582C36.5186 29.9788 36.4093 29.1286 36.2485 28.2308C36.0861 27.3262 35.8771 26.4711 35.6268 25.6896C35.368 24.8818 35.0168 24.084 34.5819 23.3196C34.1312 22.5261 33.6014 21.8352 33.0069 21.2667C32.3853 20.6719 31.6241 20.1937 30.744 19.8448C29.8669 19.4979 28.895 19.3221 27.8552 19.3221C27.4469 19.3221 27.052 19.4896 26.2894 19.9861C25.82 20.2922 25.271 20.6462 24.6582 21.0378C24.1342 21.3716 23.4244 21.6844 22.5476 21.9677C21.6922 22.2444 20.8237 22.3848 19.9661 22.3848C19.1092 22.3848 18.2407 22.2444 17.3846 21.9677C16.5088 21.6848 15.7986 21.3719 15.2756 21.0381C14.6686 20.6502 14.1193 20.2962 13.6429 19.9858C12.8809 19.4893 12.486 19.3218 12.0776 19.3218C11.0376 19.3218 10.0659 19.4979 9.18915 19.8452C8.30963 20.1934 7.54822 20.6716 6.92596 21.267C6.33148 21.8358 5.8017 22.5264 5.35126 23.3196C4.91699 24.084 4.56543 24.8815 4.30664 25.6899C4.0567 26.4714 3.84766 27.3262 3.6853 28.2308C3.52417 29.1274 3.41522 29.9779 3.36121 30.7592C3.30811 31.523 3.28125 32.318 3.28125 33.1212C3.28125 35.2092 3.94501 36.8996 5.25391 38.1462C6.54663 39.3764 8.25684 40.0002 10.3372 40.0002H29.5975C31.6772 40.0002 33.3875 39.3764 34.6805 38.1462C35.9897 36.9005 36.6534 35.2095 36.6534 33.1209C36.6531 32.3149 36.626 31.52 36.5726 30.7582ZM33.0643 36.4479C32.2101 37.2609 31.076 37.6561 29.5972 37.6561H10.3372C8.85803 37.6561 7.724 37.2609 6.87012 36.4482C6.03241 35.6508 5.62531 34.5623 5.62531 33.1212C5.62531 32.3717 5.65002 31.6317 5.69946 30.9212C5.74768 30.2242 5.84625 29.4585 5.99243 28.6449C6.13678 27.8414 6.3205 27.0873 6.539 26.4046C6.74866 25.75 7.03461 25.1018 7.38922 24.4774C7.72766 23.8823 8.11707 23.3718 8.54675 22.9604C8.94867 22.5756 9.45526 22.2606 10.0522 22.0244C10.6042 21.8059 11.2247 21.6863 11.8982 21.6683C11.9803 21.7119 12.1265 21.7952 12.3633 21.9496C12.8452 22.2637 13.4006 22.6219 14.0146 23.0141C14.7067 23.4554 15.5984 23.8539 16.6638 24.1979C17.753 24.55 18.8638 24.7289 19.9664 24.7289C21.069 24.7289 22.1802 24.55 23.2687 24.1982C24.335 23.8536 25.2264 23.4554 25.9195 23.0135C26.5479 22.6119 27.0877 22.264 27.5696 21.9496C27.8064 21.7955 27.9526 21.7119 28.0347 21.6683C28.7085 21.6863 29.3289 21.8059 29.8813 22.0244C30.4779 22.2606 30.9845 22.5759 31.3864 22.9604C31.8161 23.3715 32.2055 23.882 32.5439 24.4777C32.8989 25.1018 33.1851 25.7503 33.3945 26.4043C33.6133 27.0879 33.7973 27.8417 33.9413 28.6446C34.0872 29.4597 34.1861 30.2257 34.2343 30.9215V30.9221C34.2841 31.6298 34.3091 32.3696 34.3094 33.1212C34.3091 34.5626 33.902 35.6508 33.0643 36.4479Z" fill="#BD0707"/>
</g>
<defs>
<clipPath id="clip0_2_1320">
<rect width="40" height="40.0001" fill="white"/>
</clipPath>
</defs>
</svg>
