<svg width="78" height="78" viewBox="0 0 78 78" fill="none" xmlns="http://www.w3.org/2000/svg">
<path d="M37.0242 0.699356C23.4599 1.39378 11.2073 9.26958 4.92763 21.3289C1.26546 28.3634 -0.0858557 36.403 1.0497 44.3352C3.0937 58.585 13.1888 70.5822 26.9574 75.127C29.8247 76.0755 32.7147 76.6627 35.9056 76.9506C37.4443 77.0861 40.7261 77.0861 42.2647 76.9506C45.4557 76.6627 48.3456 76.0755 51.2129 75.127C60.6948 71.9993 68.6267 65.2526 73.2427 56.3888C77.978 47.2879 78.8183 36.561 75.5593 26.7996C71.7552 15.4065 62.6707 6.37331 51.2129 2.59068C46.6764 1.09456 41.8503 0.450943 37.0242 0.699356ZM42.4351 1.05504C45.7168 1.36555 48.4535 1.94141 51.406 2.94071C58.0263 5.18207 63.8914 9.19618 68.4053 14.5822C73.0554 20.1207 76.0249 26.8899 76.9276 33.9753C77.1718 35.8835 77.2115 36.5893 77.2115 38.8588C77.2115 41.1284 77.1718 41.8341 76.9276 43.7424C75.7239 53.2103 70.8865 61.916 63.3861 68.115C54.6026 75.3754 42.8723 78.3056 31.5621 76.0586C21.0242 73.9696 11.8318 67.4996 6.28462 58.2576C3.33785 53.3514 1.57206 47.8638 1.04402 41.964C0.941823 40.8123 0.907757 38.0459 0.981568 36.7982C1.57774 26.6245 6.00073 17.4502 13.5919 10.6245C19.2754 5.52081 26.5884 2.17854 34.1739 1.23006C35.1051 1.11714 35.6501 1.06633 37.2399 0.953415C37.9553 0.902603 41.5607 0.975998 42.4351 1.05504Z" fill="#BD0707"/>
<path d="M37.0411 3.23994C23.051 4.03599 10.8438 12.832 5.677 25.8341C4.46195 28.8941 3.66138 32.3042 3.33207 35.8102C3.20148 37.2611 3.20148 40.4566 3.33207 41.9075C4.01341 49.2188 6.73874 55.892 11.2923 61.4135C17.0496 68.3917 25.0439 72.8913 33.9751 74.1672C35.8204 74.4326 36.9105 74.506 39.0851 74.506C41.7025 74.506 43.5876 74.3366 45.9268 73.885C57.3278 71.6944 67.0425 64.0332 71.8232 53.47C73.447 49.885 74.452 46.012 74.8381 41.9075C74.9687 40.4566 74.9687 37.2611 74.8381 35.8102C74.5599 32.8405 73.9921 30.1531 73.0723 27.4262C70.4492 19.6803 65.1632 13.024 58.1624 8.6429C51.8828 4.71347 44.4676 2.81651 37.0411 3.23994ZM39.8743 6.76287C41.6231 6.84756 42.0375 6.89837 42.5258 7.07903C43.2583 7.35003 43.5705 7.7904 43.5705 8.54692C43.5705 9.26958 43.3094 9.64784 42.6337 9.92448L42.3328 10.043L42.5996 10.139C42.946 10.2576 43.3548 10.6189 43.5081 10.9294C43.6727 11.2625 43.6727 11.9174 43.5138 12.3465C43.3605 12.7417 42.9687 13.1087 42.5315 13.278C41.9637 13.4869 41.4357 13.5095 39.3974 13.4135C38.3697 13.3684 37.5123 13.3176 37.501 13.3063C37.4783 13.2837 37.677 8.61467 37.7622 7.25405L37.7962 6.67818H38.0006C38.1142 6.67818 38.9545 6.7177 39.8743 6.76287ZM34.7984 7.25405L35.0255 7.32745L35.0425 8.19688L35.0595 9.06068L34.8438 9.02116C34.0319 8.86873 33.3903 8.8405 32.7884 8.94212C32.2774 9.02116 32.1014 9.12279 32.1014 9.33168C32.1014 9.60832 32.2604 9.66478 33.3335 9.75511C33.9126 9.80592 34.435 9.87932 34.6564 9.94707C35.6557 10.2576 36.1213 10.9125 36.0645 11.9287C36.0304 12.4763 35.8771 12.8094 35.457 13.2329C34.611 14.0684 32.6976 14.4862 31.1021 14.1814L30.8126 14.1249L30.7728 13.278C30.7501 12.8094 30.7444 12.4142 30.7615 12.3973C30.7785 12.3804 30.9942 12.3973 31.2327 12.4425C31.9254 12.5667 32.9531 12.5441 33.4414 12.3917C33.8956 12.2505 33.9921 12.1715 33.9637 11.9457C33.941 11.7142 33.782 11.669 32.7203 11.5674C31.2952 11.4319 30.6933 11.1948 30.3016 10.6133C30.0574 10.2519 29.9779 9.95835 29.9779 9.43895C29.9722 8.6429 30.4208 8.01623 31.2781 7.60973C31.6245 7.44601 32.3853 7.24276 32.9247 7.16372C33.2654 7.11291 34.5769 7.17501 34.7984 7.25405ZM47.5563 7.78475C48.0844 7.95977 48.5102 8.11784 48.5102 8.14043C48.5102 8.15736 48.215 9.0381 47.8573 10.0882C47.3065 11.7029 47.2043 12.0586 47.2043 12.3465C47.2043 12.5836 47.2384 12.7473 47.3122 12.8659C47.4598 13.103 47.8913 13.3063 48.2661 13.3119C48.5159 13.3119 48.584 13.2893 48.743 13.1425C48.9871 12.9111 49.0837 12.674 49.782 10.585C50.117 9.58574 50.4123 8.76711 50.435 8.76711C50.4918 8.76711 52.2973 9.3712 52.3654 9.41072C52.4336 9.45589 51.122 13.3063 50.8778 13.7579C50.1341 15.1581 48.5329 15.5138 46.7274 14.6725C45.4612 14.0854 44.8708 13.1313 45.0411 11.9682C45.1149 11.4996 46.4662 7.46859 46.5514 7.46859C46.5798 7.46859 47.034 7.60973 47.5563 7.78475ZM27.7238 11.0085L27.6103 13.391L28.1553 14.4636C28.4506 15.0564 28.6947 15.5533 28.6947 15.5702C28.6947 15.5984 26.9062 16.5018 26.8495 16.5018C26.8324 16.5018 26.5769 16.0106 26.2874 15.4065L25.7593 14.3169L23.7948 12.9675C22.7104 12.2279 21.8246 11.6069 21.8246 11.59C21.8246 11.5504 23.6813 10.6302 23.7607 10.6302C23.7948 10.6302 24.249 10.9576 24.7714 11.3529C25.2937 11.7537 25.748 12.0981 25.7877 12.1207C25.8445 12.1545 25.8615 11.9005 25.8502 10.873L25.8388 9.58574L26.8267 9.1002C27.3718 8.83485 27.8204 8.61467 27.8204 8.62032C27.826 8.62596 27.7806 9.69865 27.7238 11.0085ZM56.8282 12.0078C57.8502 12.3521 58.963 13.2159 59.5251 14.108L59.6387 14.283L59.0539 14.6951C58.7359 14.9266 58.3952 15.1694 58.2987 15.2428L58.117 15.3783L57.9467 15.079C57.7082 14.65 57.2143 14.1757 56.7941 13.9668C56.3569 13.7523 55.8913 13.7297 55.4939 13.9104C55.1703 14.0572 54.7728 14.4749 54.5571 14.8984C54.4151 15.175 54.3867 15.2992 54.3867 15.6549C54.3867 16.0219 54.4094 16.1178 54.5457 16.3493C54.8466 16.8574 55.5563 17.2639 56.3853 17.4107C56.5954 17.4502 56.7771 17.4841 56.7827 17.4898C56.7998 17.501 56.1809 19.1665 56.1468 19.2061C56.0844 19.2625 55.3747 19.0423 54.8864 18.8165C52.5414 17.7212 51.6614 15.8694 52.6096 13.9951C53.1546 12.9167 54.0006 12.1715 54.9829 11.9005C55.4598 11.7706 56.2604 11.8214 56.8282 12.0078ZM23.5734 16.0445C24.5216 16.6147 25.2881 17.1002 25.2767 17.1228C25.2654 17.1454 24.919 17.4502 24.5045 17.8003C23.9822 18.235 23.721 18.4213 23.6585 18.3987C23.6074 18.3761 23.3576 18.235 23.0964 18.0826C22.8409 17.9245 22.6138 17.8003 22.5968 17.8003C22.5514 17.8003 21.0184 19.0875 20.9502 19.1835C20.9162 19.2286 20.9786 19.4488 21.1433 19.8271C21.3477 20.3183 21.3761 20.4142 21.3079 20.482C20.9616 20.8151 19.8033 21.741 19.7749 21.7071C19.7182 21.645 17.2086 15.2032 17.2313 15.1807C17.2426 15.1694 17.7082 14.7798 18.2646 14.3112L19.281 13.4644L20.5642 14.2378C21.2739 14.6612 22.6252 15.4742 23.5734 16.0445ZM62.4719 16.6203L63.1532 17.422L62.1085 18.3027C61.535 18.7883 61.0865 19.1891 61.1149 19.2004C61.1376 19.2117 61.8246 19.1383 62.6422 19.048C63.4541 18.952 64.1809 18.873 64.2604 18.873C64.391 18.873 64.5272 19.0141 65.8161 20.5272C65.8615 20.578 65.8899 20.6344 65.8786 20.6457C65.8672 20.657 64.9701 20.7248 63.88 20.7982L61.9098 20.928L61.853 21.1256C61.8246 21.2385 61.6089 22.1136 61.3704 23.079C61.1376 24.0388 60.9275 24.8744 60.8991 24.9252C60.8707 24.9986 60.6891 24.8179 60.0588 24.084L59.2639 23.1468L59.7068 21.5942C59.9566 20.7417 60.144 20.036 60.1326 20.019C60.1156 20.0078 59.6557 20.386 59.0993 20.8546C58.3555 21.4869 58.0716 21.7015 58.0148 21.662C57.9694 21.6337 57.6571 21.2837 57.3108 20.8772L56.6862 20.1489L56.8395 19.9965C57.0553 19.7932 61.7394 15.8243 61.7678 15.8243C61.7792 15.8243 62.0971 16.1856 62.4719 16.6203ZM41.7536 16.5864C45.9211 17.0889 49.7423 18.6133 53.024 21.0804C54.7955 22.4072 56.6976 24.3606 57.9751 26.1616C59.9112 28.8885 61.2114 31.9598 61.8189 35.2456C62.1028 36.7643 62.1653 37.5152 62.1653 39.3952C62.1653 41.7156 61.9949 43.1044 61.4556 45.1538C60.3881 49.2639 58.3271 52.7812 55.2327 55.796C51.5024 59.4262 46.9886 61.566 41.6969 62.2152C40.5329 62.3564 37.694 62.3564 36.5301 62.2152C32.5216 61.724 29.0013 60.386 25.7991 58.1447C24.0049 56.8913 22.0233 54.983 20.7061 53.2385C18.1908 49.9245 16.6919 46.1983 16.1639 41.964C16.0901 41.3373 16.0617 40.7332 16.0617 39.3952C16.0617 38.0572 16.0901 37.4531 16.1639 36.8264C16.6294 33.0889 17.8615 29.7184 19.8544 26.7488C20.8367 25.2809 21.7111 24.2421 23.051 22.9379C26.9857 19.1157 31.914 16.9308 37.5805 16.4792C38.2561 16.4284 41.0212 16.4961 41.7536 16.5864ZM16.6067 20.29C17.9013 21.6281 18.963 22.7403 18.9744 22.7629C18.98 22.7855 18.7302 23.2258 18.4179 23.7339C17.9921 24.4284 17.8218 24.6542 17.748 24.6373C17.6969 24.6316 16.76 24.3437 15.6642 24.0049C14.5741 23.6718 13.677 23.4008 13.6656 23.4065C13.66 23.4178 14.3299 24.1178 15.1532 24.9703C16.1184 25.9696 16.6465 26.5512 16.6238 26.6076C16.5613 26.7713 15.5507 28.3691 15.4939 28.3917C15.4314 28.4142 9.00986 26.4721 8.9474 26.41C8.91901 26.3874 9.31078 25.7212 9.90127 24.7897L10.1 24.4735L11.9169 25.2639C12.9162 25.6987 13.7962 26.0769 13.8757 26.1051C13.9552 26.139 13.3363 25.4785 12.5017 24.6485C11.6614 23.813 10.98 23.1129 10.98 23.0847C10.98 23.0169 12.1837 21.0748 12.2235 21.0748C12.2462 21.0748 13.1774 21.3797 14.3016 21.7523C15.6358 22.1926 16.3058 22.3903 16.232 22.3225C16.1695 22.266 15.4314 21.6563 14.5968 20.9675C13.5407 20.0981 13.0808 19.6859 13.1035 19.6295C13.1603 19.4771 14.1766 17.8567 14.2164 17.8567C14.2334 17.8567 15.3122 18.952 16.6067 20.29ZM66.9857 23.3274C67.968 23.8073 68.831 25.4502 68.9786 27.1214L69.0184 27.5448L68.2235 27.7537C67.7863 27.8666 67.3888 27.9626 67.3434 27.9626C67.281 27.9626 67.2583 27.8384 67.2299 27.4375C67.1901 26.8391 67.0311 26.1842 66.8154 25.7043C66.6337 25.2978 66.5145 25.1792 66.2987 25.2075C66.0432 25.2357 66.0148 25.4898 66.1624 26.331C66.2306 26.7149 66.2987 27.1835 66.3157 27.3754C66.3896 28.0981 66.1227 28.9054 65.6969 29.2272C65.3959 29.4587 64.9077 29.6563 64.5386 29.6902C63.6756 29.7805 62.8125 29.2272 62.1937 28.1941C61.7224 27.4037 61.3136 26.0317 61.3534 25.3599L61.3704 25.0607L62.1653 24.8461C62.6025 24.7276 62.9715 24.6316 62.9886 24.6316C63.0056 24.6316 63.051 24.9139 63.0851 25.2526C63.1702 26.0148 63.3349 26.6471 63.5791 27.1157C63.8062 27.5674 64.0049 27.7255 64.2036 27.6351C64.2831 27.6013 64.3626 27.5053 64.3853 27.4262C64.4023 27.3472 64.3626 26.9238 64.2945 26.4834C64.1298 25.4502 64.1298 24.7671 64.3001 24.3267C64.6862 23.2936 65.958 22.8193 66.9857 23.3274ZM9.07231 39.7396C9.70255 39.9033 10.5258 40.3888 11.0255 40.9026L11.2639 41.151L10.9403 41.247C10.4804 41.3881 9.87288 41.693 9.50383 41.9696C9.33349 42.0995 9.19155 42.1842 9.18019 42.1503C9.16884 42.1221 9.06664 41.9414 8.9474 41.7438C8.55563 41.0833 7.86862 40.5582 7.06238 40.2985C6.89204 40.2421 6.72739 40.1799 6.699 40.1574C6.6479 40.1066 6.97153 39.8864 7.2611 39.7735C7.73803 39.5815 8.41369 39.5702 9.07231 39.7396ZM70.9204 39.7396C71.2611 39.8525 71.6472 40.0953 71.5847 40.1574C71.5563 40.1799 71.3917 40.2421 71.2214 40.2985C70.4151 40.5582 69.7281 41.0833 69.3363 41.7438C69.2171 41.9414 69.1149 42.1221 69.1035 42.1503C69.0922 42.1842 68.9502 42.0995 68.7799 41.9696C68.4109 41.693 67.8033 41.3881 67.3434 41.247L67.0198 41.151L67.2583 40.9026C67.8998 40.2477 68.8253 39.7678 69.7167 39.6323C70.0006 39.5871 70.6309 39.6436 70.9204 39.7396ZM6.75578 40.6881C7.68693 41.0042 8.27742 41.4615 8.62377 42.1503L8.82249 42.5399L8.56699 42.8221C8.18658 43.2456 7.81185 43.8723 7.60744 44.4481L7.42576 44.9619L7.11348 44.6344C6.08012 43.5504 5.65429 42.1503 6.02334 41.0663C6.11419 40.7953 6.25613 40.5526 6.31859 40.5526C6.3413 40.5526 6.54002 40.6147 6.75578 40.6881ZM72.1695 40.8461C72.6976 41.8962 72.2831 43.4714 71.1702 44.6344L70.858 44.9619L70.6763 44.4481C70.4719 43.8723 70.0972 43.2456 69.7167 42.8221L69.4612 42.5399L69.66 42.1503C69.8927 41.6874 70.3697 41.2018 70.8296 40.976C71.1986 40.784 71.8459 40.5582 71.9538 40.5695C71.9992 40.5751 72.0957 40.6994 72.1695 40.8461ZM13.0411 41.7551C13.2171 41.8341 13.3647 41.9245 13.3647 41.9527C13.3647 42.0769 13.007 43.0254 12.8708 43.2569C12.5017 43.8948 11.7977 44.3804 10.9687 44.5836C10.452 44.7078 10.0546 44.8885 9.65145 45.1877C9.08935 45.6055 8.77139 46.108 8.40233 47.1298L8.36259 47.2428L8.27175 47.1298C7.86862 46.6104 7.74371 45.6845 7.96515 44.8772C8.1809 44.0924 8.5897 43.4432 9.254 42.8052C9.87856 42.2124 10.3612 41.9245 11.0936 41.6986C11.7011 41.5123 12.5642 41.5349 13.0411 41.7551ZM67.1277 41.6817C67.8487 41.885 68.3938 42.2011 69.0297 42.8052C69.694 43.4432 70.1028 44.0924 70.3186 44.8772C70.54 45.6845 70.4151 46.6104 70.012 47.1298L69.9211 47.2428L69.8814 47.1298C69.5123 46.108 69.1944 45.6055 68.6323 45.1877C68.2292 44.8885 67.8317 44.7078 67.315 44.5836C66.4861 44.3804 65.782 43.8948 65.413 43.2569C65.2767 43.031 64.919 42.0826 64.919 41.9527C64.919 41.8906 65.3335 41.6874 65.5833 41.6309C65.9808 41.5349 66.6848 41.5631 67.1277 41.6817ZM14.0858 42.7939C14.858 44.4368 13.5237 46.9153 11.4343 47.717C10.8551 47.9428 10.1795 48.0332 9.72526 47.9541C9.29943 47.8807 8.743 47.638 8.77707 47.542C8.7941 47.5025 8.87359 47.2597 8.95876 47C9.1518 46.4298 9.48111 45.9217 9.86153 45.6224C10.2533 45.3176 10.4747 45.2159 11.0993 45.0409C11.7806 44.849 12.1213 44.6852 12.5358 44.3521C12.973 44.0021 13.3477 43.4488 13.5918 42.8052C13.8076 42.2237 13.8133 42.2237 14.0858 42.7939ZM64.6919 42.8109C64.936 43.4488 65.3108 44.0021 65.748 44.3521C66.1624 44.6852 66.5031 44.849 67.1844 45.0409C67.809 45.2159 68.0304 45.3176 68.4222 45.6224C68.8026 45.9217 69.1319 46.4298 69.325 47C69.4101 47.2597 69.4896 47.5025 69.5067 47.542C69.5407 47.638 68.9843 47.8807 68.5585 47.9541C68.1042 48.0332 67.4286 47.9428 66.8495 47.717C65.6231 47.2484 64.5556 46.1249 64.1412 44.8715C63.9595 44.3126 63.9368 43.4545 64.0901 43.0367C64.1809 42.8052 64.4478 42.3027 64.4875 42.3027C64.4989 42.3027 64.5897 42.5286 64.6919 42.8109ZM55.9651 59.9456C56.2093 60.3013 56.4023 60.6118 56.4023 60.6401C56.4023 60.6627 55.8402 61.0635 55.1532 61.5208C54.4662 61.9838 53.8927 62.379 53.8757 62.4015C53.8587 62.4298 54.1539 62.9266 54.2788 63.0734C54.2902 63.0847 54.7047 62.8306 55.193 62.5032C55.6869 62.1814 56.1582 61.8708 56.2377 61.82L56.3853 61.724L56.8168 62.3733C57.061 62.729 57.254 63.0452 57.254 63.0677C57.254 63.096 56.8282 63.4065 56.3058 63.7565C55.7778 64.1065 55.3292 64.4171 55.3008 64.4396C55.227 64.5074 55.6756 65.1736 55.7721 65.1397C55.8118 65.1228 56.391 64.7445 57.061 64.2929C57.7253 63.8412 58.293 63.4742 58.3214 63.4742C58.3668 63.4742 59.2412 64.7332 59.2412 64.7953C59.2412 64.8292 55.0397 67.6577 54.9545 67.6859C54.9034 67.7029 51.2639 62.3902 51.2242 62.2378C51.2072 62.187 55.3974 59.3077 55.4996 59.302C55.5166 59.2964 55.7267 59.59 55.9651 59.9456ZM23.6131 60.0586C24.4478 60.2731 25.5209 60.9562 26.1284 61.6619C26.5145 62.1023 26.7302 62.4354 26.6791 62.5088C26.6451 62.5709 25.2597 63.5307 25.2143 63.5307C25.1972 63.5307 25.1064 63.3895 25.0099 63.2202C24.7714 62.8024 24.2377 62.283 23.8573 62.0967C23.4541 61.8991 22.9772 61.8878 22.5798 62.0628C22.0517 62.2943 21.518 63.0395 21.4442 63.6436C21.3874 64.1065 21.5123 64.4114 21.9041 64.801C22.3072 65.2018 22.7387 65.422 23.3463 65.5462C23.5847 65.597 23.7948 65.6478 23.8005 65.6535C23.8118 65.6591 23.6756 66.0487 23.4939 66.5173C23.2384 67.1778 23.1419 67.3698 23.0624 67.3698C22.8977 67.3698 22.0631 67.048 21.66 66.8278C20.1553 66.0092 19.3264 64.8744 19.3207 63.638C19.315 63.0508 19.4172 62.6556 19.7295 62.0571C20.2576 61.0522 21.1149 60.3013 22.012 60.0586C22.4094 59.9569 23.1986 59.9513 23.6131 60.0586ZM50.7984 63.3726C50.946 63.7791 51.0482 64.1291 51.0255 64.1517C51.0028 64.1743 50.3498 64.4284 49.5776 64.7163C48.7998 65.0042 48.1695 65.2639 48.1695 65.2978C48.1695 65.4051 48.4137 66.0148 48.4534 66.0148C48.4761 66.0148 48.7714 65.9132 49.1121 65.7833C49.4527 65.6535 49.9637 65.4672 50.2476 65.3655L50.77 65.1792L51.0595 65.9414C51.2185 66.3648 51.3434 66.7149 51.3377 66.7205C51.3264 66.7262 50.8211 66.9181 50.2135 67.1439C49.606 67.3698 49.0893 67.573 49.061 67.59C48.9985 67.6521 49.2824 68.3578 49.3732 68.3521C49.413 68.3465 50.083 68.1094 50.8551 67.8214C51.6273 67.5335 52.2689 67.3077 52.2803 67.319C52.3143 67.3698 52.8253 68.7643 52.8253 68.8151C52.8253 68.8885 47.9992 70.6669 47.9424 70.6104C47.9197 70.5822 47.3803 69.1877 46.7558 67.5109C45.87 65.1623 45.6259 64.4509 45.6827 64.4171C45.7735 64.355 50.3896 62.633 50.469 62.633C50.5031 62.6274 50.6507 62.9605 50.7984 63.3726ZM29.7565 63.2484C30.9204 63.525 31.9084 64.2364 32.3626 65.1228C32.8055 65.9866 32.743 67.2286 32.215 68.2731C31.4712 69.7353 30.029 70.4298 28.4222 70.1023C27.2072 69.8539 26.1454 69.1143 25.6912 68.1941C25.4641 67.7368 25.4073 67.4432 25.4016 66.8278C25.3959 65.0494 26.6507 63.4404 28.2405 63.175C28.6266 63.1129 29.325 63.1468 29.7565 63.2484ZM45.0979 65.0946C45.1319 65.3712 45.1773 65.7438 45.1944 65.9358L45.2285 66.2745L43.7636 66.4552C42.9517 66.5568 42.2817 66.6358 42.2646 66.6358C42.2476 66.6358 42.2533 66.8391 42.2874 67.0875C42.3498 67.6238 42.2022 67.59 43.6557 67.4037C44.2178 67.3303 44.6834 67.2738 44.6891 67.2794C44.7231 67.3077 44.8935 68.8941 44.8651 68.9224C44.848 68.9393 44.3314 69.0183 43.7068 69.0974C43.0879 69.1764 42.5769 69.2442 42.5712 69.2498C42.5599 69.2555 42.6167 69.7466 42.6962 70.3338C42.77 70.9266 42.8267 71.446 42.8154 71.4912C42.804 71.5533 42.5769 71.6041 41.8104 71.7001C41.2654 71.7678 40.7998 71.8017 40.7827 71.7847C40.7373 71.7283 39.9311 65.2696 39.9651 65.2357C39.9992 65.1962 44.5131 64.6203 44.8253 64.609L45.0297 64.6034L45.0979 65.0946ZM36.7174 65.0212C38.0574 65.1623 39.1646 65.2865 39.1816 65.3034C39.2214 65.343 39.0794 66.8786 39.034 66.9294C39.0113 66.9576 38.3697 66.9125 37.6089 66.8334C36.8424 66.7544 36.1781 66.6923 36.1213 66.6923C36.0475 66.6923 36.0191 66.777 35.9907 67.1157C35.968 67.3528 35.9623 67.5561 35.9737 67.573C35.9907 67.5843 36.5074 67.6464 37.1319 67.7142C37.7508 67.7763 38.2675 67.8384 38.2788 67.8497C38.3016 67.8722 38.1369 69.4643 38.1085 69.4926C38.0972 69.4982 37.5918 69.4587 36.99 69.3966C36.3825 69.3345 35.8601 69.295 35.8204 69.3063C35.7806 69.3232 35.7182 69.7523 35.6557 70.4241C35.5933 71.0282 35.5308 71.5363 35.5138 71.5589C35.4683 71.6097 33.5663 71.4347 33.4981 71.3726C33.4698 71.3444 33.5833 69.9894 33.7764 68.0473C34.0602 65.2696 34.1227 64.7727 34.2022 64.7727C34.2476 64.7727 35.3832 64.8857 36.7174 65.0212Z" fill="#BD0707"/>
<path d="M39.7439 8.86874C39.7269 9.19619 39.7155 9.46718 39.7212 9.47848C39.7382 9.49541 40.6126 9.51235 40.8851 9.50671C40.9987 9.50106 41.135 9.4446 41.2428 9.34298C41.3848 9.21877 41.4189 9.14538 41.4245 8.95342C41.4302 8.46789 41.2258 8.34368 40.3003 8.29852L39.7837 8.27594L39.7439 8.86874Z" fill="#BD0707"/>
<path d="M39.6529 10.9238C39.6529 11.0593 39.6359 11.3359 39.6132 11.5448L39.5791 11.9287H40.3286C41.22 11.9287 41.3733 11.8779 41.4755 11.5335C41.5606 11.2512 41.4641 10.9972 41.22 10.873C41.078 10.7996 40.3286 10.7036 39.7551 10.6923C39.6756 10.6867 39.6529 10.7375 39.6529 10.9238Z" fill="#BD0707"/>
<path d="M19.2924 15.6323C19.5819 16.3888 20.1554 17.6874 20.1895 17.6761C20.2633 17.6478 21.1944 16.8744 21.2001 16.8349C21.2001 16.8123 20.7629 16.5131 20.2292 16.1687C19.6955 15.8186 19.2697 15.5815 19.2924 15.6323Z" fill="#BD0707"/>
<path d="M37.9212 17.7777C37.7963 17.789 37.3761 17.8285 36.9844 17.8624C34.4918 18.0713 31.7097 18.8673 29.3477 20.0473C27.1391 21.1425 24.8566 22.8419 23.2214 24.6034C19.8942 28.1884 17.9524 32.4509 17.4414 37.278C17.3506 38.1757 17.3506 40.5977 17.4414 41.5123C17.9411 46.3112 19.8999 50.6133 23.2157 54.1814C24.8793 55.9711 27.1277 57.6422 29.4102 58.777C31.6132 59.8723 34.066 60.5949 36.7005 60.9167C37.8417 61.0522 40.374 61.0522 41.5266 60.9111C46.2221 60.3465 50.2193 58.5511 53.7565 55.4121C55.6189 53.7579 57.4187 51.398 58.6054 49.0437C59.7466 46.7798 60.5074 44.1545 60.7856 41.5123C60.8822 40.6034 60.8822 38.187 60.7856 37.278C60.1611 31.3331 57.2995 26.139 52.5756 22.3846C51.9907 21.9216 50.5316 20.9393 49.8445 20.5554C47.2839 19.1157 44.2917 18.1672 41.3279 17.8567C40.7374 17.7946 38.3186 17.7382 37.9212 17.7777ZM46.2789 23.8073C47.017 24.0049 47.6643 24.4114 48.3172 25.1002C49.0213 25.8398 49.4187 26.6866 49.4187 27.4488C49.413 28.29 48.9247 28.753 48.0447 28.753C46.3186 28.7473 44.2462 26.5907 44.3825 24.9365C44.4563 23.9936 45.2342 23.5307 46.2789 23.8073ZM26.6849 28.3634C27.2015 28.5215 27.9567 28.9054 28.4052 29.2329C28.8254 29.5434 29.3023 29.9725 29.3818 30.1136C29.4272 30.2039 29.1661 30.6274 28.479 31.5702L28.3768 31.7057L28.0135 31.3274C26.9744 30.2491 25.9467 29.9329 24.9815 30.379C23.863 30.8984 23.2839 32.3888 23.6416 33.8116C23.8687 34.7036 24.5727 35.7819 25.3392 36.4029C25.6004 36.6175 25.6856 36.7135 25.6629 36.7981C25.6004 37.0917 25.0837 38.4467 25.0326 38.458C24.9418 38.4806 24.2718 37.9612 23.7608 37.4756C22.4549 36.2279 21.6543 34.5399 21.6543 33.0099C21.6543 32.1178 21.9212 31.175 22.3981 30.3733C22.6934 29.8821 23.5734 28.9619 23.9936 28.7078C24.8339 28.2053 25.7764 28.0868 26.6849 28.3634ZM33.7651 29.0579C37.6316 30.3451 43.758 35.4037 48.1866 40.9591C48.4251 41.2583 48.6238 41.5293 48.6238 41.5575C48.6238 41.6422 47.6245 42.1108 47.0284 42.3084C45.802 42.7149 44.6096 42.856 43.2697 42.7544C41.1462 42.5963 40.1412 42.1898 39.6586 41.2922C39.3634 40.7389 39.3123 40.3719 39.2555 38.4072C39.2157 36.9449 39.1873 36.5272 39.0851 36.0699C38.8807 35.1157 38.5401 34.4269 37.9326 33.7156C36.6437 32.2138 34.7416 31.2879 32.7317 31.1863L32.0277 31.1524L31.9255 30.8532C31.7835 30.4411 31.6813 29.7184 31.7267 29.4756C31.7665 29.2442 31.9482 28.9958 32.1242 28.9167C32.3513 28.8207 33.2881 28.8998 33.7651 29.0579ZM30.8467 31.4629C32.0788 35.144 36.797 40.9591 42.1511 45.4079C44.9162 47.7057 47.5905 49.3655 49.5323 50.0035L50.2477 50.235L49.9978 50.4269C48.7998 51.3246 46.9829 52.4312 45.4897 53.1708C42.7416 54.5314 40.374 55.1863 37.9212 55.271C36.3541 55.3218 35.1731 55.1581 33.8105 54.7121C30.8467 53.7353 28.1043 51.319 26.6735 48.4284C25.8275 46.7233 25.4641 44.9619 25.5323 42.952C25.589 41.3712 25.8218 40.1517 26.3953 38.4354C26.9233 36.849 27.5252 35.5335 28.445 33.9414C29.0468 32.8857 30.5344 30.6725 30.5969 30.7403C30.6025 30.7459 30.7161 31.0734 30.8467 31.4629ZM53.0582 31.9823C54.5401 32.7163 55.5167 34.314 55.9311 36.6852C56.056 37.3966 56.0731 39.6605 55.9595 40.5526C55.8403 41.4954 55.5678 42.76 55.3179 43.5335C54.6536 45.5547 53.7736 47.0564 52.4563 48.3832C51.8204 49.0268 51.758 49.072 51.5025 49.1058C50.8438 49.2018 49.8162 48.9026 48.3967 48.1969C47.8687 47.9315 47.4315 47.7001 47.4315 47.6775C47.4315 47.6549 47.704 47.5533 48.039 47.4516C48.8566 47.1976 49.6061 46.8419 50.3555 46.3451C50.9971 45.9216 51.9226 45.103 52.2122 44.7078C52.5528 44.2392 52.3257 43.7142 51.775 43.7142C51.5252 43.7142 51.5025 43.7311 50.9915 44.2336C49.8218 45.4079 48.4365 46.1814 46.9375 46.5032C45.802 46.7516 45.9553 46.7798 45.132 46.1814C44.4109 45.6619 42.8949 44.4707 42.4634 44.0868L42.2363 43.8835L42.6621 43.9287C42.8949 43.9513 43.599 43.9682 44.2235 43.9682C45.1717 43.9626 45.467 43.9456 46.0007 43.8384C47.7722 43.4883 49.4925 42.6528 50.5713 41.6309C51.1391 41.0889 51.5081 40.6034 51.8545 39.9315C52.4904 38.6951 52.7175 37.3684 52.5131 36.036C52.3939 35.2343 52.2462 34.8052 51.7352 33.789C51.3492 33.0268 51.264 32.8123 51.247 32.5413C51.2186 32.1404 51.2753 32.0219 51.5876 31.8638C51.968 31.6718 52.5131 31.7113 53.0582 31.9823ZM33.5209 32.4848C35.2129 32.7897 36.8765 33.964 37.5578 35.3303C37.9212 36.0586 38.0064 36.5949 38.0404 38.3507L38.0688 39.8468L37.5465 39.3105C36.4563 38.187 35.1675 36.5554 34.0546 34.8786C33.4982 34.0317 32.5557 32.4735 32.5557 32.3888C32.5557 32.355 33.0724 32.4058 33.5209 32.4848Z" fill="black"/>
<path d="M45.1945 24.2477C44.9049 24.4171 44.7629 24.6881 44.7629 25.072C44.7629 26.139 45.8417 27.5504 47.1192 28.1433C47.4769 28.307 47.5678 28.3239 48.039 28.3296C48.516 28.3296 48.5727 28.3183 48.709 28.1884C48.9418 27.9739 49.0213 27.7763 49.0213 27.4093C49.0213 26.3874 48.0106 25.0325 46.7842 24.4284C46.347 24.2138 46.1994 24.1687 45.8417 24.1461C45.467 24.1235 45.3875 24.1348 45.1945 24.2477Z" fill="black"/>
<path d="M25.4018 28.6231C24.7829 28.6909 24.2038 28.9901 23.6304 29.5321C22.8922 30.2322 22.4323 30.9774 22.1882 31.8581C22.0463 32.3719 22.0406 33.6083 22.1825 34.1164C22.5516 35.4488 23.3578 36.6683 24.4877 37.5999L24.8568 37.8991L25.0441 37.3797L25.2315 36.8603L24.8454 36.4876C23.4714 35.1778 22.8866 33.5857 23.2386 32.1178C23.4714 31.1581 24.0051 30.4185 24.7148 30.0628C25.8049 29.5208 26.9064 29.7579 28.0193 30.7742L28.3429 31.0677L28.6438 30.633L28.9448 30.1983L28.6325 29.9217C27.9568 29.3176 27.0313 28.8264 26.2648 28.6683C25.8901 28.5836 25.7879 28.5836 25.4018 28.6231Z" fill="black"/>
<path d="M32.1867 29.3966C32.1072 29.5152 32.0958 29.6168 32.1242 29.8991C32.1413 30.0967 32.1924 30.3677 32.2321 30.5088L32.3059 30.7572L32.8396 30.7911C34.6963 30.9097 36.5188 31.7283 37.8361 33.0437C39.2158 34.41 39.6473 35.6634 39.653 38.266C39.6586 40.5413 39.829 41.2018 40.533 41.6817C41.0838 42.06 41.8787 42.2576 43.2697 42.3592C44.8595 42.4778 46.3244 42.2406 47.6757 41.6309L48.0674 41.4559L47.8801 41.2188C46.7616 39.7904 45.5408 38.4354 43.917 36.8264C40.7034 33.6422 37.626 31.2879 35.0256 30.0233C33.907 29.4813 33.396 29.3119 32.7772 29.278C32.2946 29.2498 32.2832 29.2498 32.1867 29.3966Z" fill="black"/>
<path d="M30.103 32.067C28.3088 34.6189 26.8383 37.7636 26.2876 40.2251C25.8504 42.1616 25.8049 44.036 26.1456 45.7184C26.8213 49.0381 29.416 52.2562 32.6751 53.82C34.35 54.6217 35.9512 54.9435 37.9213 54.8758C39.7837 54.808 41.3791 54.458 43.4004 53.6676C45.2003 52.9619 47.3919 51.7763 49.0157 50.6358C49.3167 50.4213 49.3621 50.3705 49.2712 50.3423C48.7716 50.1672 48.1925 49.9132 47.5168 49.5631C42.2762 46.8758 35.1506 40.0049 31.8575 34.4721C31.4146 33.7269 30.8752 32.6711 30.6538 32.1122C30.5686 31.892 30.4834 31.6944 30.4551 31.6718C30.4323 31.6436 30.2734 31.8243 30.103 32.067ZM36.2464 41.8567C37.6602 42.218 38.6254 43.1609 39.0399 44.6005C39.1477 44.9675 39.1705 45.1708 39.1648 45.8313C39.1648 46.5032 39.1364 46.7064 39.0115 47.1863C38.5516 48.8913 37.2798 50.5286 35.7013 51.4375C34.702 52.0134 33.4302 52.3352 32.3912 52.2787C31.6985 52.2392 31.2954 52.1319 30.6367 51.8101C28.8142 50.9238 28.0874 48.7445 28.8426 46.4467C29.2343 45.2385 30.1087 44.0077 31.1307 43.206C32.7602 41.9301 34.6055 41.4446 36.2464 41.8567Z" fill="black"/>
<path d="M34.5372 42.1334C32.3967 42.3931 30.2903 44.0134 29.3988 46.091C28.7345 47.6493 28.8027 49.2527 29.5805 50.3931C29.9269 50.8956 30.2562 51.1722 30.8807 51.4827C31.5621 51.8158 32.0674 51.9231 32.8396 51.8836C35.5025 51.7424 37.9042 49.7269 38.6423 47.0169C38.7445 46.65 38.7672 46.4128 38.7672 45.7749C38.7615 45.0748 38.7445 44.9337 38.6139 44.5272C38.1426 43.1045 36.9333 42.2181 35.3378 42.1164C35.105 42.0995 34.7416 42.1108 34.5372 42.1334ZM35.8488 43.4093C35.8829 43.4432 35.8658 43.5674 35.7863 43.7706C35.7182 43.94 35.6274 44.307 35.5819 44.5893C35.4854 45.1821 35.3719 45.4644 35.0937 45.7749C34.7984 46.1136 34.401 46.3056 33.7878 46.4016C33.1008 46.5088 32.8055 46.6104 32.391 46.8758C31.545 47.4178 31.1419 48.0783 30.9432 49.2414C30.8183 49.9527 30.7956 49.9866 30.6025 49.7382C29.995 48.9478 30.0064 47.5363 30.6309 46.3112C31.1249 45.3345 32.181 44.2618 33.0951 43.8158C33.4187 43.6521 34.0035 43.4545 34.3783 43.3754C34.7019 43.3133 35.7693 43.3303 35.8488 43.4093ZM37.2001 44.3747C37.8076 45.3402 37.6941 46.7403 36.8935 48.0727C36.5415 48.6598 35.6898 49.5293 35.0993 49.9132C34.2363 50.4721 33.2541 50.7601 32.4421 50.698C31.9084 50.6584 31.7949 50.6189 31.8516 50.4947C31.9936 50.1785 32.1015 49.7833 32.1526 49.3881C32.2321 48.8292 32.4251 48.4284 32.7601 48.1179C33.0894 47.8186 33.396 47.6831 33.924 47.6097C34.8325 47.4799 35.3094 47.2597 35.8829 46.6838C36.3939 46.1757 36.6153 45.7354 36.7572 44.928C36.9276 43.9795 36.9389 43.9626 37.2001 44.3747Z" fill="black"/>
<path d="M34.2024 43.8327C33.345 44.0529 32.6978 44.4368 32.0278 45.1143C31.4827 45.6619 31.2386 45.9894 30.9604 46.5653C30.6594 47.1863 30.5686 47.5815 30.5686 48.259L30.5743 48.8235L30.7276 48.3719C31.1818 47.0564 32.2322 46.2209 33.6743 46.0233C34.1967 45.9499 34.5828 45.7692 34.8213 45.4813C35.0313 45.2272 35.1335 44.9562 35.2187 44.4199C35.2528 44.1997 35.2982 43.9569 35.3152 43.8666L35.3493 43.7142L34.9916 43.7198C34.7929 43.7198 34.4352 43.7706 34.2024 43.8327Z" fill="black"/>
<path d="M37.0753 45.3909C37.0526 45.5264 36.9334 45.837 36.8085 46.091C36.5303 46.6612 35.9 47.3161 35.355 47.5984C34.9746 47.796 34.2478 48.0049 33.9242 48.0049C33.4983 48.0106 32.9419 48.3775 32.7205 48.8066C32.6637 48.9252 32.5842 49.2075 32.5558 49.4389C32.5218 49.6648 32.4707 49.9414 32.4423 50.043C32.4082 50.1503 32.3855 50.2576 32.3855 50.2858C32.3855 50.3705 33.3053 50.2745 33.6914 50.1447C34.4409 49.9019 35.0086 49.5575 35.6275 48.9816C36.7233 47.9541 37.3422 46.5201 37.1662 45.4361L37.1208 45.1538L37.0753 45.3909Z" fill="black"/>
<path d="M51.7636 32.2082C51.5081 32.3324 51.6103 32.7615 52.0759 33.5745C52.4109 34.1503 52.6721 34.8278 52.8424 35.5561C53.0014 36.2505 53.0127 37.5999 52.8594 38.2943C52.3598 40.5921 51.0028 42.2407 48.709 43.3529C47.3463 44.0078 46.0234 44.3239 44.4677 44.3747L43.457 44.4086L44.0589 44.8829C44.3939 45.1426 44.9446 45.5603 45.2853 45.8031C45.9836 46.3056 46.012 46.3112 46.6934 46.1701C48.1809 45.8596 49.5323 45.1143 50.7019 43.957C51.3435 43.3303 51.5422 43.2343 51.9964 43.3303C52.5983 43.4601 52.9332 44.1207 52.6891 44.7022C52.5869 44.9393 51.8545 45.7071 51.2924 46.1588C50.5145 46.7798 49.4471 47.3952 48.6806 47.6606L48.3683 47.7678L48.9361 48.0332C49.748 48.4114 50.6054 48.6881 51.0993 48.722L51.5138 48.7558L51.9794 48.3098C53.8474 46.5088 55.0567 43.9852 55.4939 40.9704C55.6472 39.9372 55.6983 38.2943 55.6132 37.4192C55.3633 34.9125 54.3868 33.0889 52.8765 32.338C52.462 32.1291 52.0305 32.0783 51.7636 32.2082Z" fill="black"/>
<path d="M33.5381 33.3204C34.492 34.9407 36.1556 37.199 37.399 38.5709L37.6659 38.8701V38.3451C37.6659 37.6168 37.5693 36.5949 37.4615 36.1884C37.2514 35.3698 36.6666 34.5681 35.8433 33.9527C35.1392 33.422 34.2649 33.0212 33.5154 32.8857L33.2485 32.8349L33.5381 33.3204Z" fill="black"/>
<path d="M7.84045 40.0388L7.63037 40.0727L7.954 40.2421C8.41958 40.4848 9.06685 41.1059 9.311 41.5575C9.32803 41.5858 10.4693 40.976 10.4693 40.9365C10.4693 40.9196 10.2933 40.7841 10.0718 40.6373C9.38481 40.18 8.45933 39.9315 7.84045 40.0388Z" fill="white"/>
<path d="M69.66 40.0445C69.2285 40.1122 68.638 40.355 68.2065 40.6429C67.9907 40.7841 67.8147 40.9196 67.8147 40.9365C67.8147 40.976 68.9559 41.5858 68.973 41.5575C69.2171 41.1059 69.8587 40.4905 70.3413 40.2308C70.5628 40.1122 70.6422 40.0445 70.5628 40.0445C70.4946 40.0445 70.33 40.0332 70.1937 40.0219C70.0574 40.0049 69.819 40.0162 69.66 40.0445Z" fill="white"/>
<path d="M6.37544 41.2696C6.25052 41.7043 6.29027 42.3761 6.46628 42.8673C6.63094 43.3246 6.74449 43.5335 7.05109 43.9569L7.24414 44.2223L7.4826 43.7311C7.61887 43.4545 7.85734 43.0593 8.01631 42.8504C8.18097 42.6415 8.31156 42.4439 8.31156 42.41C8.31156 42.2914 8.02199 41.9132 7.72107 41.6422C7.49396 41.4333 7.2782 41.3091 6.94321 41.1792C6.69339 41.0833 6.47764 41.0042 6.46628 41.0042C6.4606 41.0042 6.42086 41.1228 6.37544 41.2696Z" fill="white"/>
<path d="M71.3181 41.1849C71.0115 41.3034 70.7843 41.4389 70.5629 41.6422C70.262 41.9132 69.9724 42.2914 69.9724 42.41C69.9724 42.4439 70.103 42.6415 70.2677 42.8504C70.4266 43.0593 70.6651 43.4545 70.8014 43.7311L71.0398 44.2223L71.2329 43.9569C71.7325 43.2625 71.9653 42.6528 71.9767 41.9922C71.9824 41.5744 71.8802 40.9986 71.795 41.0099C71.778 41.0099 71.5622 41.0889 71.3181 41.1849Z" fill="white"/>
<path d="M11.2697 42.0487C10.6338 42.2294 10.083 42.5681 9.46983 43.1778C8.97019 43.669 8.86231 43.8102 8.6352 44.2788C8.49325 44.5723 8.34563 44.928 8.31724 45.0692C8.24911 45.3627 8.23208 46.1983 8.30021 46.1983C8.32292 46.1983 8.41377 46.0572 8.50461 45.8878C8.66927 45.5716 9.0951 45.0917 9.44712 44.832C9.77643 44.5836 10.2988 44.3522 10.8609 44.1941C11.4854 44.0191 11.6558 43.94 11.9908 43.669C12.303 43.4206 12.5813 43.0028 12.7686 42.5117L12.9106 42.1334L12.7573 42.0656C12.5074 41.964 11.6217 41.9527 11.2697 42.0487Z" fill="white"/>
<path d="M65.714 42.0035C65.6685 42.0204 65.572 42.06 65.4982 42.0825L65.3733 42.1334L65.5152 42.5116C65.7026 43.0028 65.9808 43.4206 66.2931 43.669C66.6281 43.94 66.7984 44.019 67.423 44.1941C67.9851 44.3521 68.5074 44.5836 68.8367 44.832C69.1888 45.0917 69.6146 45.5716 69.7792 45.8878C69.8701 46.0572 69.9609 46.1983 69.9893 46.1983C70.0518 46.1983 70.0347 45.3627 69.9666 45.0692C69.9382 44.928 69.7906 44.5723 69.6487 44.2787C69.4215 43.8101 69.3137 43.669 68.814 43.1778C68.1895 42.5568 67.6387 42.218 66.9858 42.0487C66.6678 41.9696 65.89 41.9414 65.714 42.0035Z" fill="white"/>
<path d="M13.6486 43.6464C13.359 44.2053 12.7742 44.7643 12.1667 45.0578C11.9055 45.1877 11.491 45.3458 11.2412 45.4079C10.9971 45.47 10.7132 45.566 10.6166 45.6168C10.0262 45.916 9.60032 46.4015 9.36185 47.0621L9.22559 47.429L9.46405 47.4855C9.90692 47.5984 10.1113 47.6097 10.5144 47.5532C11.843 47.3669 13.1376 46.3112 13.6826 44.9619C13.8473 44.5554 13.9438 43.8892 13.887 43.5335L13.8473 43.2625L13.6486 43.6464Z" fill="white"/>
<path d="M64.3911 43.5561C64.2208 44.9957 65.4017 46.7177 66.9915 47.35C67.6331 47.6041 68.1895 47.6436 68.8198 47.4855L69.0582 47.4291L68.922 47.0621C68.6835 46.4015 68.2577 45.916 67.6672 45.6168C67.5707 45.566 67.2868 45.47 67.0426 45.4079C66.7928 45.3458 66.3783 45.1877 66.1171 45.0579C65.5153 44.7699 64.9305 44.211 64.6296 43.6408L64.4252 43.2512L64.3911 43.5561Z" fill="white"/>
<path d="M28.7459 64.9195C28.2633 65.0663 27.8261 65.6309 27.5933 66.4044C27.264 67.5166 27.8488 68.4425 28.8935 68.4425C29.2966 68.4425 29.5351 68.3409 29.8247 68.0529C30.3754 67.5053 30.6877 66.3705 30.4663 65.7269C30.2505 65.1171 29.3988 64.7163 28.7459 64.9195Z" fill="#BD0707"/>
</svg>
